<svg version="1.1" xmlns="http://www.w3.org/2000/svg" xmlns:xlink="http://www.w3.org/1999/xlink" width="76.45159" height="76.45159" viewBox="0,0,76.45159,76.45159"><g transform="translate(-201.7742,-141.7742)"><g data-paper-data="{&quot;isPaintingLayer&quot;:true}" fill-rule="nonzero" stroke="none" stroke-linecap="butt" stroke-linejoin="miter" stroke-miterlimit="10" stroke-dasharray="" stroke-dashoffset="0" style="mix-blend-mode: normal"><path d="M201.77421,180c0,-21.11152 17.11427,-38.2258 38.2258,-38.2258c21.11153,0 38.2258,17.11427 38.2258,38.2258c0,21.11153 -17.11427,38.2258 -38.2258,38.2258c-21.11152,0 -38.2258,-17.11427 -38.2258,-38.2258z" fill="#000000" stroke-width="none"/><path d="M223.42335,173.84805c0,2.37921 11.85033,16.96854 8.69898,23.64824c-2.38764,5.06094 -19.94153,3.18842 -20.17893,1.75421c-0.40971,-2.47517 12.11927,-1.54807 13.14789,-6.65252c1.30602,-6.48104 -8.75132,-19.09736 -8.75132,-21.43672c0,-2.61184 -3.61388,-7.49264 4.94814,-10.5259c5.14668,-1.82331 18.45542,-1.38424 19.72155,0.99998c0.27883,0.52507 3.18432,4.36059 -0.67831,5.06375c-3.31635,0.60371 -13.35527,-1.93623 -14.52524,-1.32758c-5.19739,2.70383 -2.38276,5.66483 -2.38276,8.47654z" fill="#ffffff" stroke-width="0"/><path d="M248.33728,178.97739c0,-5.93551 -6.91252,-32.24157 -0.97701,-32.24157c4.40338,0 6.44063,14.3437 7.19898,24.17225c0.11729,1.52011 14.12647,-20.76045 16.8734,-12.44275c0.4843,1.46646 -16.5005,19.41672 -16.5005,20.26781c0,0.91026 17.21725,21.11598 13.11207,25.12735c-2.29872,2.24618 -13.73338,-18.00045 -14.19224,-13.98722c-1.17013,10.23429 -3.37048,25.49802 -6.98022,25.49802c-5.93551,0 1.46552,-30.45838 1.46552,-36.39389z" fill="#ffffff" stroke-width="0"/></g></g></svg>